<svg xmlns="http://www.w3.org/2000/svg" viewBox="0 0 192 192" width="192" height="192">
  <title>CVForge maskable icon</title>
  <!-- Composed from cvforge-mark-small.svg. Full-bleed, and scaled to 0.56 so the mark stays inside Android's circular safe zone (the central 80%). Source for Icon-maskable-192/512.png. -->
  <rect width="192" height="192" fill="#9600FF"/>
  <g fill="none" stroke="#FFFFFF" stroke-width="16"
     stroke-linecap="round" stroke-linejoin="round"
     transform="translate(96 96) scale(0.56) translate(-97 -96)">
    <path d="M20 36 L40 16 H92 A8 8 0 0 1 100 24 V100 H168 L174 103
    C150 116 120 130 104 154
    H134 V176 H44 V154 H74
    C70 146 64 138 56 132 H36 A16 16 0 0 1 20 116 Z"/>
    <path d="M40 16 V30 A6 6 0 0 1 34 36 H20"/>
    <path d="M100 100 H20"/>
    <g stroke-width="10">
    <path d="M34 54 H78"/>
    <path d="M34 69 H86"/>
    <path d="M34 84 H86"/>
    </g>
  </g>
</svg>
